<svg xmlns="http://www.w3.org/2000/svg" xmlns:xlink="http://www.w3.org/1999/xlink" width="500" zoomAndPan="magnify" viewBox="0 0 375 374.999991" height="500" preserveAspectRatio="xMidYMid meet" version="1.0"><defs><g/><clipPath id="277aa64901"><path d="M 41 165 L 374.832031 165 L 374.832031 306.476562 L 41 306.476562 Z M 41 165 " clip-rule="nonzero"/></clipPath><clipPath id="e0d93d35e0"><path d="M 0 38.253906 L 334 38.253906 L 334 180 L 0 180 Z M 0 38.253906 " clip-rule="nonzero"/></clipPath><clipPath id="453bd3ce68"><path d="M 259 100 L 312.5625 100 L 312.5625 143 L 259 143 Z M 259 100 " clip-rule="nonzero"/></clipPath><clipPath id="ef5f21eac9"><path d="M 192.414062 100 L 246 100 L 246 143 L 192.414062 143 Z M 192.414062 100 " clip-rule="nonzero"/></clipPath><clipPath id="7febfd2afb"><path d="M 237 72.140625 L 267 72.140625 L 267 87 L 237 87 Z M 237 72.140625 " clip-rule="nonzero"/></clipPath><clipPath id="0f74ad2cec"><path d="M 197 132 L 308 132 L 308 145.523438 L 197 145.523438 Z M 197 132 " clip-rule="nonzero"/></clipPath></defs><rect x="-37.5" width="450" fill="#ffffff" y="-37.499999" height="449.999989" fill-opacity="1"/><rect x="-37.5" width="450" fill="#e7f6fb" y="-37.499999" height="449.999989" fill-opacity="1"/><path fill="#e7f6fb" d="M 124.0625 168.46875 L 140.507812 149.679688 C 141.230469 148.804688 142.449219 146.992188 142.449219 144.664062 C 142.449219 140.84375 139.417969 137.851562 135.546875 137.851562 L 97.785156 137.851562 C 97.320312 137.851562 96.859375 137.898438 96.402344 137.988281 C 95.945312 138.082031 95.503906 138.214844 95.074219 138.394531 C 94.640625 138.574219 94.234375 138.792969 93.847656 139.050781 C 93.460938 139.3125 93.101562 139.605469 92.773438 139.933594 C 92.445312 140.265625 92.148438 140.621094 91.890625 141.007812 C 91.632812 141.394531 91.414062 141.804688 91.234375 142.234375 C 91.054688 142.664062 90.921875 143.109375 90.828125 143.566406 C 90.738281 144.019531 90.691406 144.484375 90.691406 144.949219 C 90.691406 148.878906 93.804688 151.949219 97.785156 151.949219 L 120.246094 151.949219 L 105.195312 169.296875 C 103.855469 170.859375 103.203125 172.453125 103.203125 174.160156 C 103.203125 177.972656 106.34375 181.070312 110.207031 181.070312 L 112.578125 181.070312 C 120.292969 181.070312 128.535156 183.617188 128.535156 190.953125 C 128.535156 197.4375 122.515625 200.933594 116.847656 200.933594 C 110.324219 200.933594 105.144531 198.371094 100.613281 192.933594 C 99.914062 192.082031 99.066406 191.417969 98.074219 190.941406 C 97.082031 190.46875 96.03125 190.222656 94.929688 190.214844 C 94.460938 190.214844 93.992188 190.261719 93.527344 190.351562 C 93.066406 190.445312 92.617188 190.582031 92.179688 190.765625 C 91.746094 190.945312 91.332031 191.167969 90.9375 191.429688 C 90.546875 191.691406 90.183594 191.988281 89.847656 192.324219 C 89.515625 192.65625 89.214844 193.019531 88.953125 193.414062 C 88.691406 193.804688 88.46875 194.21875 88.289062 194.65625 C 88.109375 195.089844 87.972656 195.542969 87.878906 196.003906 C 87.789062 196.46875 87.742188 196.933594 87.742188 197.40625 C 87.742188 199.5 88.753906 201.148438 89.359375 201.957031 L 89.484375 202.117188 C 96.238281 210.324219 105.925781 214.84375 116.753906 214.84375 C 131.539062 214.84375 143.109375 204.269531 143.109375 190.578125 C 143.117188 179.625 136.011719 171.628906 124.0625 168.46875 Z M 124.0625 168.46875 " fill-opacity="1" fill-rule="nonzero"/><path fill="#e7f6fb" d="M 176.910156 163.285156 C 171.296875 163.285156 166.347656 164.625 162.082031 167.28125 C 163.308594 162.039062 165.425781 157.710938 168.296875 154.769531 C 170.984375 152.023438 174.199219 150.628906 177.859375 150.628906 C 182.207031 150.628906 185.847656 152.097656 190.089844 155.570312 C 191.386719 156.640625 192.875 157.175781 194.558594 157.175781 C 195.027344 157.175781 195.496094 157.128906 195.960938 157.039062 C 196.425781 156.945312 196.875 156.808594 197.308594 156.628906 C 197.746094 156.449219 198.160156 156.226562 198.554688 155.964844 C 198.949219 155.703125 199.3125 155.40625 199.644531 155.070312 C 199.980469 154.738281 200.277344 154.375 200.542969 153.980469 C 200.804688 153.589844 201.027344 153.175781 201.207031 152.738281 C 201.386719 152.300781 201.523438 151.851562 201.617188 151.386719 C 201.710938 150.925781 201.757812 150.457031 201.757812 149.984375 C 201.757812 147.808594 200.847656 145.929688 198.90625 144.277344 C 192.355469 139.121094 185.785156 136.722656 178.25 136.722656 C 159.84375 136.722656 146.484375 153.828125 146.484375 177.59375 C 146.484375 191.378906 149.332031 199.851562 156.308594 206.832031 C 161.414062 211.929688 168.789062 214.855469 176.539062 214.855469 C 192.484375 214.855469 204.507812 203.4375 204.507812 188.121094 C 204.496094 174.199219 192.378906 163.285156 176.910156 163.285156 Z M 176.910156 200.949219 C 168.894531 200.949219 162.847656 195.800781 162.847656 188.785156 C 162.847656 183.136719 168.382812 177.09375 176.625 177.09375 C 184.457031 177.09375 189.925781 181.707031 189.925781 188.308594 L 189.925781 188.496094 C 189.925781 195.832031 184.574219 200.949219 176.910156 200.949219 Z M 176.910156 200.949219 " fill-opacity="1" fill-rule="nonzero"/><path fill="#e7f6fb" d="M 239.8125 136.722656 C 221.378906 136.722656 207.480469 153.515625 207.480469 175.789062 L 207.480469 175.976562 C 207.480469 198.503906 221 214.855469 239.621094 214.855469 C 258.054688 214.855469 271.957031 198.058594 271.957031 175.597656 C 271.957031 153.074219 258.4375 136.722656 239.8125 136.722656 Z M 239.8125 200.949219 C 228.695312 200.949219 222.050781 188.15625 222.050781 175.597656 C 222.050781 163.496094 228.210938 150.628906 239.621094 150.628906 C 250.738281 150.628906 257.382812 163.421875 257.382812 175.789062 L 257.382812 175.976562 C 257.382812 188.082031 251.226562 200.949219 239.8125 200.949219 Z M 239.8125 200.949219 " fill-opacity="1" fill-rule="nonzero"/><path fill="#e7f6fb" d="M 309.769531 144.566406 C 309.65625 144.019531 309.519531 143.480469 309.351562 142.949219 C 309.1875 142.417969 308.996094 141.898438 308.78125 141.386719 C 308.5625 140.871094 308.324219 140.371094 308.058594 139.882812 C 307.792969 139.394531 307.503906 138.917969 307.191406 138.460938 C 306.878906 138 306.542969 137.554688 306.1875 137.128906 C 305.832031 136.699219 305.457031 136.292969 305.058594 135.902344 C 304.664062 135.511719 304.25 135.140625 303.816406 134.789062 C 303.382812 134.441406 302.9375 134.113281 302.472656 133.804688 C 302.007812 133.5 301.527344 133.21875 301.035156 132.960938 C 300.542969 132.699219 300.039062 132.464844 299.523438 132.257812 C 299.007812 132.046875 298.484375 131.863281 297.949219 131.707031 C 297.417969 131.550781 296.875 131.417969 296.328125 131.3125 C 295.785156 131.207031 295.234375 131.132812 294.679688 131.082031 C 294.125 131.03125 293.570312 131.007812 293.015625 131.011719 C 292.457031 131.015625 291.902344 131.046875 291.351562 131.105469 C 290.796875 131.164062 290.246094 131.246094 289.703125 131.359375 C 289.15625 131.472656 288.621094 131.613281 288.089844 131.777344 C 287.558594 131.941406 287.035156 132.132812 286.523438 132.347656 C 286.011719 132.566406 285.511719 132.808594 285.019531 133.074219 C 284.53125 133.339844 284.058594 133.628906 283.597656 133.941406 C 283.136719 134.253906 282.691406 134.585938 282.265625 134.941406 C 281.839844 135.296875 281.429688 135.675781 281.039062 136.070312 C 280.648438 136.464844 280.277344 136.882812 279.929688 137.3125 C 279.578125 137.746094 279.25 138.195312 278.945312 138.660156 C 278.636719 139.125 278.355469 139.601562 278.097656 140.09375 C 277.839844 140.585938 277.605469 141.089844 277.394531 141.605469 C 277.1875 142.121094 277.003906 142.648438 276.84375 143.179688 C 276.6875 143.714844 276.554688 144.253906 276.453125 144.800781 C 276.347656 145.347656 276.269531 145.898438 276.21875 146.449219 C 276.167969 147.003906 276.144531 147.558594 276.148438 148.117188 C 276.152344 148.671875 276.183594 149.226562 276.242188 149.78125 C 276.300781 150.335938 276.386719 150.882812 276.5 151.429688 C 276.609375 151.972656 276.75 152.511719 276.914062 153.042969 C 277.082031 153.574219 277.273438 154.09375 277.488281 154.609375 C 277.703125 155.121094 277.945312 155.621094 278.210938 156.109375 C 278.476562 156.597656 278.765625 157.074219 279.078125 157.53125 C 279.390625 157.992188 279.726562 158.4375 280.082031 158.863281 C 280.4375 159.292969 280.8125 159.703125 281.210938 160.089844 C 281.605469 160.480469 282.019531 160.851562 282.453125 161.203125 C 282.886719 161.550781 283.332031 161.878906 283.796875 162.1875 C 284.261719 162.492188 284.742188 162.773438 285.234375 163.03125 C 285.726562 163.292969 286.230469 163.523438 286.746094 163.734375 C 287.261719 163.945312 287.785156 164.128906 288.320312 164.285156 C 288.851562 164.441406 289.394531 164.574219 289.9375 164.679688 C 290.484375 164.78125 291.035156 164.859375 291.589844 164.910156 C 292.144531 164.960938 292.699219 164.984375 293.253906 164.980469 C 293.8125 164.976562 294.367188 164.945312 294.917969 164.886719 C 295.472656 164.828125 296.023438 164.742188 296.566406 164.632812 C 297.113281 164.519531 297.648438 164.378906 298.179688 164.214844 C 298.710938 164.050781 299.234375 163.859375 299.746094 163.640625 C 300.257812 163.425781 300.757812 163.183594 301.246094 162.917969 C 301.734375 162.652344 302.210938 162.363281 302.671875 162.050781 C 303.132812 161.738281 303.574219 161.40625 304.003906 161.046875 C 304.429688 160.691406 304.839844 160.316406 305.230469 159.921875 C 305.621094 159.523438 305.988281 159.109375 306.339844 158.675781 C 306.691406 158.246094 307.015625 157.796875 307.324219 157.332031 C 307.628906 156.867188 307.910156 156.386719 308.171875 155.894531 C 308.429688 155.402344 308.664062 154.898438 308.871094 154.382812 C 309.082031 153.867188 309.265625 153.34375 309.421875 152.8125 C 309.582031 152.277344 309.710938 151.738281 309.816406 151.191406 C 309.921875 150.644531 310 150.09375 310.050781 149.539062 C 310.101562 148.988281 310.125 148.433594 310.121094 147.875 C 310.117188 147.320312 310.085938 146.765625 310.027344 146.210938 C 309.96875 145.660156 309.882812 145.109375 309.769531 144.566406 Z M 295.359375 158.773438 C 294.648438 158.917969 293.933594 158.992188 293.214844 159 C 292.492188 159.003906 291.773438 158.9375 291.066406 158.800781 C 290.355469 158.667969 289.667969 158.460938 288.996094 158.191406 C 288.328125 157.917969 287.691406 157.585938 287.089844 157.1875 C 286.484375 156.789062 285.925781 156.339844 285.410156 155.832031 C 284.898438 155.324219 284.4375 154.769531 284.03125 154.171875 C 283.625 153.574219 283.28125 152.945312 283 152.277344 C 282.71875 151.613281 282.507812 150.925781 282.359375 150.21875 C 282.214844 149.511719 282.140625 148.796875 282.136719 148.074219 C 282.128906 147.351562 282.195312 146.636719 282.332031 145.925781 C 282.46875 145.21875 282.671875 144.527344 282.941406 143.859375 C 283.214844 143.191406 283.546875 142.554688 283.945312 141.949219 C 284.34375 141.347656 284.796875 140.789062 285.300781 140.273438 C 285.808594 139.757812 286.363281 139.296875 286.960938 138.894531 C 287.558594 138.488281 288.1875 138.144531 288.855469 137.863281 C 289.519531 137.582031 290.207031 137.367188 290.914062 137.222656 C 291.621094 137.078125 292.335938 137 293.058594 136.996094 C 293.78125 136.992188 294.496094 137.054688 295.207031 137.191406 C 295.914062 137.328125 296.605469 137.53125 297.273438 137.804688 C 297.945312 138.074219 298.578125 138.410156 299.183594 138.804688 C 299.785156 139.203125 300.347656 139.65625 300.859375 140.164062 C 301.375 140.667969 301.835938 141.222656 302.242188 141.820312 C 302.644531 142.417969 302.988281 143.050781 303.269531 143.714844 C 303.550781 144.378906 303.765625 145.066406 303.910156 145.773438 C 304.058594 146.480469 304.132812 147.195312 304.136719 147.917969 C 304.144531 148.640625 304.078125 149.355469 303.941406 150.066406 C 303.804688 150.777344 303.601562 151.464844 303.328125 152.136719 C 303.058594 152.804688 302.722656 153.441406 302.328125 154.042969 C 301.929688 154.648438 301.476562 155.207031 300.96875 155.722656 C 300.460938 156.234375 299.910156 156.695312 299.3125 157.101562 C 298.714844 157.507812 298.082031 157.851562 297.417969 158.132812 C 296.75 158.414062 296.066406 158.625 295.359375 158.773438 Z M 295.359375 158.773438 " fill-opacity="1" fill-rule="nonzero"/><g clip-path="url(#277aa64901)"><path fill="#fad02f" d="M 372.21875 165.671875 L 334.335938 170.75 C 331.851562 171.085938 331.050781 174.289062 333.089844 175.753906 L 338.71875 179.789062 C 336.714844 181.472656 334.710938 183.15625 332.6875 184.808594 C 319.113281 196.015625 305.089844 206.640625 290.625 216.683594 C 276.226562 226.777344 261.351562 236.164062 246.125 244.882812 C 215.699219 262.226562 183.535156 277.003906 150.015625 285.355469 C 133.304688 289.488281 116.136719 291.6875 99.589844 290.175781 C 91.371094 289.328125 83.328125 287.398438 76.230469 283.792969 C 69.125 280.21875 63.027344 274.957031 58.636719 268.332031 C 54.171875 261.738281 51.5 253.765625 50.386719 245.410156 C 49.273438 237.050781 49.636719 228.320312 50.691406 219.644531 C 51.746094 210.972656 53.957031 202.339844 56.46875 193.816406 C 58.878906 185.234375 62.253906 176.945312 65.539062 168.582031 C 56.5 184.074219 48.785156 200.589844 44.464844 218.480469 C 42.316406 227.410156 41.152344 236.710938 41.570312 246.183594 C 41.988281 255.628906 44.1875 265.371094 49.035156 274.125 C 53.886719 282.878906 61.332031 290.191406 69.902344 295.273438 C 78.492188 300.40625 88.03125 303.34375 97.519531 304.996094 C 107.039062 306.636719 116.59375 306.851562 126 306.394531 C 135.367188 305.9375 144.644531 304.773438 153.832031 302.898438 C 172.128906 299.414062 189.75 293.753906 206.882812 287.109375 C 224.050781 280.503906 240.550781 272.46875 256.660156 263.816406 C 272.753906 255.105469 288.289062 245.472656 303.414062 235.265625 C 318.484375 224.96875 333.074219 214.035156 347.1875 202.460938 C 348.949219 201.007812 350.660156 199.5 352.402344 198.023438 L 355.105469 205.527344 C 355.972656 207.9375 359.359375 207.984375 360.292969 205.597656 L 374.675781 168.796875 C 374.75 168.609375 374.796875 168.417969 374.820312 168.21875 C 374.84375 168.019531 374.839844 167.820312 374.808594 167.621094 C 374.78125 167.421875 374.726562 167.230469 374.648438 167.046875 C 374.566406 166.859375 374.464844 166.6875 374.34375 166.53125 C 374.21875 166.375 374.074219 166.234375 373.914062 166.113281 C 373.753906 165.992188 373.582031 165.894531 373.394531 165.820312 C 373.210938 165.742188 373.015625 165.695312 372.816406 165.667969 C 372.617188 165.644531 372.417969 165.644531 372.21875 165.671875 Z M 372.21875 165.671875 " fill-opacity="1" fill-rule="nonzero"/></g><g clip-path="url(#e0d93d35e0)"><path fill="#662dba" d="M 2.792969 179.4375 L 40.675781 174.359375 C 41.242188 174.285156 41.734375 174.054688 42.160156 173.675781 C 42.585938 173.296875 42.867188 172.828125 43.003906 172.273438 C 43.140625 171.722656 43.109375 171.175781 42.910156 170.644531 C 42.710938 170.109375 42.378906 169.675781 41.914062 169.347656 L 36.296875 165.3125 C 38.296875 163.628906 40.304688 161.941406 42.328125 160.289062 C 55.902344 149.085938 69.917969 138.464844 84.378906 128.425781 C 98.78125 118.335938 113.65625 108.945312 128.878906 100.226562 C 159.3125 82.882812 191.472656 68.105469 224.992188 59.753906 C 241.703125 55.621094 258.871094 53.421875 275.417969 54.9375 C 283.640625 55.78125 291.679688 57.710938 298.777344 61.316406 C 305.890625 64.886719 311.976562 70.15625 316.371094 76.777344 C 320.832031 83.367188 323.507812 91.34375 324.621094 99.703125 C 325.761719 108.078125 325.367188 116.789062 324.316406 125.464844 C 323.265625 134.140625 321.050781 142.769531 318.539062 151.292969 C 316.128906 159.878906 312.753906 168.164062 309.464844 176.527344 C 318.507812 161.035156 326.222656 144.519531 330.542969 126.625 C 332.6875 117.695312 333.851562 108.398438 333.4375 98.925781 C 333.015625 89.480469 330.820312 79.738281 325.972656 70.984375 C 321.125 62.230469 313.679688 54.917969 305.105469 49.835938 C 296.511719 44.707031 286.972656 41.765625 277.488281 40.113281 C 267.96875 38.472656 258.414062 38.257812 249.007812 38.714844 C 239.640625 39.171875 230.363281 40.339844 221.175781 42.210938 C 202.878906 45.6875 185.261719 51.347656 168.125 57.996094 C 150.957031 64.597656 134.460938 72.632812 118.351562 81.289062 C 102.253906 90 86.71875 99.621094 71.59375 109.835938 C 56.523438 120.132812 41.933594 131.066406 27.820312 142.644531 C 26.0625 144.097656 24.347656 145.605469 22.609375 147.082031 L 19.90625 139.570312 C 19.042969 137.160156 15.648438 137.113281 14.71875 139.5 L 0.335938 176.304688 C 0.261719 176.492188 0.210938 176.6875 0.1875 176.886719 C 0.164062 177.085938 0.167969 177.285156 0.195312 177.484375 C 0.226562 177.683594 0.28125 177.878906 0.359375 178.0625 C 0.4375 178.246094 0.539062 178.417969 0.664062 178.578125 C 0.789062 178.734375 0.933594 178.875 1.09375 178.996094 C 1.253906 179.117188 1.429688 179.214844 1.617188 179.292969 C 1.800781 179.367188 1.996094 179.417969 2.195312 179.441406 C 2.394531 179.46875 2.59375 179.464844 2.792969 179.4375 Z M 2.792969 179.4375 " fill-opacity="1" fill-rule="nonzero"/></g><path stroke-linecap="butt" transform="matrix(0.84612, 0, 0, 0.84612, 55.904074, 101.687285)" fill="none" stroke-linejoin="miter" d="M 94.80576 45.234324 C 94.99966 45.862191 95.09661 46.420807 95.09661 46.905557 C 95.09661 49.564755 93.596194 50.894354 90.599979 50.894354 C 89.82438 50.894354 89.099564 50.746621 88.420914 50.455771 C 75.803572 36.000997 62.216731 28.771302 47.665007 28.771302 C 43.117593 28.771302 38.186997 29.376085 32.8686 30.585651 C 21.844007 34.745265 16.331711 40.474544 16.331711 47.77349 C 16.331711 52.417853 18.413826 57.177633 22.568823 62.062064 L 36.058715 62.062064 L 36.058715 71.415424 L 24.092322 71.415424 L 24.092322 152.207039 C 24.092322 153.998304 22.499573 154.893937 19.304842 154.893937 C 16.359411 154.893937 14.882078 153.901354 14.882078 151.920806 L 14.882078 71.415424 L -0.856128 71.415424 L -0.856128 62.062064 L 12.781496 62.062064 C 8.718832 58.09635 6.6875 53.479686 6.6875 48.207456 C 6.6875 39.698945 10.990231 32.663149 19.595692 27.104686 C 28.445836 22.561889 37.65608 20.285874 47.231041 20.285874 C 66.131662 20.285874 81.994518 28.605102 94.80576 45.234324 Z M 117.865995 71.415424 L 117.865995 153.079588 C 117.865995 155.060137 116.485613 156.05272 113.729464 156.05272 C 110.34545 156.05272 108.655751 155.060137 108.655751 153.079588 L 108.655751 85.777865 C 108.655751 82.343067 106.527469 79.079086 102.270905 75.985921 C 97.631158 72.745023 92.335845 71.129191 86.389582 71.129191 C 82.423868 71.129191 78.845954 72.311057 75.655839 74.679405 C 71.980975 77.435554 70.217409 81.013468 70.360526 85.413149 C 70.360526 85.560882 70.360526 85.680915 70.360526 85.777865 C 70.651376 91.724128 72.876607 96.003775 77.031605 98.61219 C 80.272503 100.694305 85.613983 102.120854 93.060661 102.891837 C 93.739311 103.279637 94.076327 104.124486 94.076327 105.431002 C 94.076327 108.090201 93.397678 110.024583 92.044995 111.234148 C 84.312083 110.509332 78.702837 109.248983 75.221873 107.462334 C 71.256159 105.384836 67.701327 101.539155 64.55738 95.929908 C 61.173365 102.457871 57.207651 106.806768 52.664854 108.985833 C 49.571689 110.384682 44.322543 111.280315 36.926647 111.668115 C 35.717081 110.749399 35.112299 109.396716 35.112299 107.605451 C 35.112299 105.961919 35.620132 104.535369 36.635798 103.325804 C 41.954194 103.03957 46.598558 101.659188 50.559655 99.19389 C 54.913169 96.391575 57.595451 92.859827 58.611117 88.603263 C 59.142033 86.428815 58.901966 84.231283 57.8863 82.006051 C 57.401551 80.893435 56.727518 79.757736 55.854968 78.598953 C 53.246553 75.164155 50.056439 73.01279 46.284625 72.14024 C 44.105559 71.660107 40.144462 71.415424 34.387482 71.415424 C 32.891683 71.415424 32.139167 69.771892 32.139167 66.484827 C 32.139167 63.534779 32.891683 62.062064 34.387482 62.062064 C 42.318911 62.062064 47.614224 62.49603 50.273422 63.368579 C 55.637985 65.058278 60.351599 69.361009 64.414263 76.276771 C 67.558211 71.443124 70.725242 68.03141 73.915357 66.050861 C 76.768455 64.162646 80.923452 62.833046 86.389582 62.062064 C 89.14573 61.91433 92.021912 62.23288 95.018126 63.003863 C 96.564709 63.437829 98.138991 63.945662 99.73174 64.527362 C 104.473054 66.410961 107.446185 68.756226 108.655751 71.563157 C 108.655751 69.481042 109.574467 67.38046 111.411899 65.252178 C 113.249331 63.123896 115.400697 62.062064 117.865995 62.062064 L 129.176821 62.062064 L 129.176821 71.415424 Z M 221.565495 62.062064 L 221.565495 71.415424 L 210.033069 71.415424 L 210.033069 152.497888 C 210.033069 153.467388 209.428286 154.312237 208.21872 155.037054 C 207.013771 155.812653 205.684172 156.195836 204.229923 156.195836 C 202.831073 156.195836 201.695374 155.85882 200.822825 155.184787 L 150.274974 117.905228 C 149.402425 116.598712 148.968458 115.246029 148.968458 113.842563 C 148.968458 111.377265 149.961041 110.144616 151.94159 110.144616 C 157.984802 109.465966 163.280116 107.097618 167.822913 103.03957 C 172.661176 98.589107 175.075691 93.538477 175.075691 87.878447 C 175.075691 84.203583 174.036942 80.602585 171.959443 77.075454 C 167.70288 86.839698 160.981017 91.724128 151.798473 91.724128 C 146.429293 91.724128 140.529197 90.006729 134.102801 86.576548 C 132.893235 85.560882 132.288452 84.300533 132.288452 82.804734 C 132.288452 79.951635 133.594968 78.525086 136.203383 78.525086 C 136.688133 78.525086 137.172883 78.622036 137.653016 78.815936 C 142.731346 81.715201 147.301843 83.164833 151.35989 83.164833 C 159.679118 83.164833 164.369648 78.114203 165.431481 68.008326 C 165.385314 66.027778 165.888531 64.698179 166.95498 64.019529 C 167.485896 63.682513 168.164546 63.511696 168.986312 63.511696 C 169.905028 63.511696 170.846827 63.802546 171.81171 64.384245 C 179.937038 69.651859 183.851969 77.652537 183.561119 88.38628 C 183.561119 88.58018 183.561119 88.797163 183.561119 89.041846 C 183.080986 101.950038 175.948241 111.017165 162.1675 116.238612 L 200.822825 144.012461 L 200.822825 70.330508 C 200.822825 64.818212 203.482023 62.062064 208.80042 62.062064 Z M 300.247294 62.062064 L 300.247294 71.415424 L 289.005718 71.415424 L 289.005718 154.455354 C 289.005718 156.195836 287.454519 157.068386 284.361354 157.068386 C 281.314356 157.068386 279.795474 156.195836 279.795474 154.455354 L 279.795474 122.909691 C 278.488958 117.203495 276.434543 112.826897 273.627611 109.784516 C 269.661897 105.477169 263.886451 103.325804 256.296656 103.325804 C 250.733576 103.325804 246.139995 104.877003 242.515914 107.970167 C 238.7441 111.303398 236.860501 115.656912 236.860501 121.021476 C 236.860501 126.196755 237.973117 130.042436 240.193733 132.553901 C 241.643365 134.248217 244.08558 136.034866 247.520378 137.923081 C 248.245194 138.647897 248.609911 139.44658 248.609911 140.314513 C 248.609911 141.621029 248.102078 142.756728 247.086412 143.721611 C 246.116912 144.640327 245.078163 145.05121 243.965547 144.958877 C 243.868597 144.908093 243.771647 144.88501 243.674697 144.88501 C 237.534534 142.516662 233.231804 138.574031 230.766505 133.061734 C 228.979857 129.09602 228.084224 125.037973 228.084224 120.878359 C 228.084224 114.350396 230.184806 108.6719 234.395203 103.833637 C 239.662816 97.744257 247.252611 94.697259 257.164588 94.697259 C 265.917783 94.697259 273.461411 97.818124 279.795474 104.055236 L 279.795474 71.415424 L 221.265412 71.415424 L 221.265412 62.062064 Z M 300.247294 62.062064 " stroke="#ceb5f6" stroke-width="11.1399" stroke-opacity="1" stroke-miterlimit="4"/><g fill="#3e216b" fill-opacity="1"><g transform="translate(55.917295, 238.758674)"><g><path d="M 80.203125 -98.796875 C 80.367188 -98.265625 80.453125 -97.796875 80.453125 -97.390625 C 80.453125 -95.140625 79.179688 -94.015625 76.640625 -94.015625 C 75.984375 -94.015625 75.367188 -94.132812 74.796875 -94.375 C 64.117188 -106.601562 52.625 -112.71875 40.3125 -112.71875 C 36.46875 -112.71875 32.296875 -112.207031 27.796875 -111.1875 C 18.472656 -107.664062 13.8125 -102.816406 13.8125 -96.640625 C 13.8125 -92.710938 15.566406 -88.6875 19.078125 -84.5625 L 30.5 -84.5625 L 30.5 -76.640625 L 20.375 -76.640625 L 20.375 -8.28125 C 20.375 -6.769531 19.023438 -6.015625 16.328125 -6.015625 C 13.828125 -6.015625 12.578125 -6.851562 12.578125 -8.53125 L 12.578125 -76.640625 L -0.734375 -76.640625 L -0.734375 -84.5625 L 10.796875 -84.5625 C 7.359375 -87.914062 5.640625 -91.820312 5.640625 -96.28125 C 5.640625 -103.476562 9.28125 -109.429688 16.5625 -114.140625 C 24.050781 -117.984375 31.847656 -119.90625 39.953125 -119.90625 C 55.941406 -119.90625 69.359375 -112.867188 80.203125 -98.796875 Z M 80.203125 -98.796875 "/></g></g></g><g fill="#3e216b" fill-opacity="1"><g transform="translate(85.062539, 238.758674)"><g><path d="M 70.5625 -76.640625 L 70.5625 -7.546875 C 70.5625 -5.867188 69.394531 -5.03125 67.0625 -5.03125 C 64.207031 -5.03125 62.78125 -5.867188 62.78125 -7.546875 L 62.78125 -64.5 C 62.78125 -67.394531 60.976562 -70.15625 57.375 -72.78125 C 53.445312 -75.519531 48.96875 -76.890625 43.9375 -76.890625 C 40.582031 -76.890625 37.554688 -75.882812 34.859375 -73.875 C 31.742188 -71.550781 30.25 -68.523438 30.375 -64.796875 C 30.375 -64.671875 30.375 -64.570312 30.375 -64.5 C 30.625 -59.457031 32.503906 -55.832031 36.015625 -53.625 C 38.753906 -51.875 43.273438 -50.671875 49.578125 -50.015625 C 50.148438 -49.679688 50.4375 -48.960938 50.4375 -47.859375 C 50.4375 -45.609375 49.863281 -43.972656 48.71875 -42.953125 C 42.175781 -43.566406 37.429688 -44.628906 34.484375 -46.140625 C 31.128906 -47.898438 28.125 -51.15625 25.46875 -55.90625 C 22.601562 -50.382812 19.25 -46.703125 15.40625 -44.859375 C 12.78125 -43.671875 8.34375 -42.914062 2.09375 -42.59375 C 1.0625 -43.363281 0.546875 -44.503906 0.546875 -46.015625 C 0.546875 -47.410156 0.976562 -48.617188 1.84375 -49.640625 C 6.34375 -49.890625 10.269531 -51.054688 13.625 -53.140625 C 17.300781 -55.515625 19.570312 -58.5 20.4375 -62.09375 C 20.882812 -63.9375 20.679688 -65.800781 19.828125 -67.6875 C 19.410156 -68.625 18.835938 -69.582031 18.109375 -70.5625 C 15.890625 -73.46875 13.1875 -75.289062 10 -76.03125 C 8.15625 -76.4375 4.800781 -76.640625 -0.0625 -76.640625 C -1.332031 -76.640625 -1.96875 -78.03125 -1.96875 -80.8125 C -1.96875 -83.3125 -1.332031 -84.5625 -0.0625 -84.5625 C 6.644531 -84.5625 11.125 -84.191406 13.375 -83.453125 C 17.914062 -82.023438 21.90625 -78.382812 25.34375 -72.53125 C 28 -76.625 30.675781 -79.507812 33.375 -81.1875 C 35.789062 -82.78125 39.3125 -83.90625 43.9375 -84.5625 C 46.269531 -84.6875 48.703125 -84.421875 51.234375 -83.765625 C 52.546875 -83.390625 53.878906 -82.957031 55.234375 -82.46875 C 59.234375 -80.875 61.75 -78.890625 62.78125 -76.515625 C 62.78125 -78.273438 63.554688 -80.054688 65.109375 -81.859375 C 66.660156 -83.660156 68.476562 -84.5625 70.5625 -84.5625 L 80.140625 -84.5625 L 80.140625 -76.640625 Z M 70.5625 -76.640625 "/></g></g></g><g fill="#3e216b" fill-opacity="1"><g transform="translate(163.969435, 238.758674)"><g><path d="M 79.40625 -84.5625 L 79.40625 -76.640625 L 69.640625 -76.640625 L 69.640625 -8.03125 C 69.640625 -7.21875 69.128906 -6.503906 68.109375 -5.890625 C 67.085938 -5.234375 65.960938 -4.90625 64.734375 -4.90625 C 63.546875 -4.90625 62.585938 -5.191406 61.859375 -5.765625 L 19.078125 -37.3125 C 18.347656 -38.414062 17.984375 -39.5625 17.984375 -40.75 C 17.984375 -42.832031 18.820312 -43.875 20.5 -43.875 C 25.613281 -44.445312 30.09375 -46.453125 33.9375 -49.890625 C 38.019531 -53.648438 40.0625 -57.925781 40.0625 -62.71875 C 40.0625 -65.820312 39.1875 -68.867188 37.4375 -71.859375 C 33.832031 -63.597656 28.144531 -59.46875 20.375 -59.46875 C 15.832031 -59.46875 10.84375 -60.914062 5.40625 -63.8125 C 4.375 -64.675781 3.859375 -65.742188 3.859375 -67.015625 C 3.859375 -69.421875 4.960938 -70.625 7.171875 -70.625 C 7.585938 -70.625 8 -70.546875 8.40625 -70.390625 C 12.695312 -67.929688 16.5625 -66.703125 20 -66.703125 C 27.039062 -66.703125 31.007812 -70.976562 31.90625 -79.53125 C 31.863281 -81.207031 32.296875 -82.332031 33.203125 -82.90625 C 33.648438 -83.1875 34.222656 -83.328125 34.921875 -83.328125 C 35.691406 -83.328125 36.488281 -83.082031 37.3125 -82.59375 C 44.1875 -78.132812 47.5 -71.363281 47.25 -62.28125 C 47.25 -62.113281 47.25 -61.929688 47.25 -61.734375 C 46.84375 -50.804688 40.804688 -43.132812 29.140625 -38.71875 L 61.859375 -15.21875 L 61.859375 -77.5625 C 61.859375 -82.226562 64.109375 -84.5625 68.609375 -84.5625 Z M 79.40625 -84.5625 "/></g></g></g><g fill="#3e216b" fill-opacity="1"><g transform="translate(243.858065, 238.758674)"><g><path d="M 66.09375 -84.5625 L 66.09375 -76.640625 L 56.578125 -76.640625 L 56.578125 -6.375 C 56.578125 -4.90625 55.269531 -4.171875 52.65625 -4.171875 C 50.070312 -4.171875 48.78125 -4.90625 48.78125 -6.375 L 48.78125 -33.078125 C 47.675781 -37.898438 45.9375 -41.601562 43.5625 -44.1875 C 40.207031 -47.820312 35.320312 -49.640625 28.90625 -49.640625 C 24.195312 -49.640625 20.3125 -48.332031 17.25 -45.71875 C 14.050781 -42.894531 12.453125 -39.210938 12.453125 -34.671875 C 12.453125 -30.296875 13.394531 -27.039062 15.28125 -24.90625 C 16.507812 -23.476562 18.578125 -21.96875 21.484375 -20.375 C 22.085938 -19.757812 22.390625 -19.082031 22.390625 -18.34375 C 22.390625 -17.238281 21.960938 -16.28125 21.109375 -15.46875 C 20.285156 -14.6875 19.40625 -14.335938 18.46875 -14.421875 C 18.382812 -14.460938 18.300781 -14.484375 18.21875 -14.484375 C 13.03125 -16.484375 9.390625 -19.816406 7.296875 -24.484375 C 5.785156 -27.835938 5.03125 -31.273438 5.03125 -34.796875 C 5.03125 -40.316406 6.8125 -45.125 10.375 -49.21875 C 14.832031 -54.363281 21.253906 -56.9375 29.640625 -56.9375 C 37.046875 -56.9375 43.425781 -54.300781 48.78125 -49.03125 L 48.78125 -76.640625 L -0.734375 -76.640625 L -0.734375 -84.5625 Z M 66.09375 -84.5625 "/></g></g></g><path fill="#ee2931" d="M 219.574219 82.578125 L 217.007812 82.640625 L 205.6875 82.921875 L 195.628906 92.5 L 195.628906 97.550781 C 195.609375 97.558594 195.601562 97.566406 195.589844 97.574219 C 195.574219 97.578125 195.566406 97.585938 195.554688 97.601562 C 195.398438 97.707031 195.292969 97.882812 195.292969 98.085938 C 195.292969 98.300781 195.414062 98.492188 195.589844 98.589844 L 195.589844 99.128906 L 194.984375 100.328125 L 196.820312 100.328125 L 196.203125 99.105469 L 196.210938 98.554688 C 196.234375 98.539062 196.261719 98.527344 196.28125 98.503906 C 196.414062 98.398438 196.5 98.238281 196.5 98.050781 C 196.5 97.839844 196.378906 97.648438 196.210938 97.550781 L 196.210938 92.535156 L 196.273438 92.542969 L 197.960938 92.660156 L 200.324219 92.828125 L 201.042969 92.882812 L 201.136719 93.109375 L 201.996094 95.191406 C 202.710938 94.105469 203.558594 93.121094 204.535156 92.273438 C 204.597656 92.210938 204.667969 92.15625 204.730469 92.101562 C 205.863281 91.140625 207.144531 90.363281 208.53125 89.789062 C 209.921875 89.210938 211.378906 88.855469 212.855469 88.734375 C 212.945312 88.722656 213.03125 88.714844 213.121094 88.714844 C 213.375 88.695312 213.625 88.6875 213.878906 88.6875 C 213.878906 88.6875 213.886719 88.6875 213.886719 88.6875 C 214.109375 88.679688 214.332031 88.6875 214.558594 88.695312 C 215.363281 88.722656 216.167969 88.820312 216.96875 88.980469 L 216.015625 86.683594 L 219.574219 82.578125 " fill-opacity="1" fill-rule="evenodd"/><path fill="#f16219" d="M 267.445312 133.226562 C 268.691406 133.382812 269.929688 133.550781 271.171875 133.746094 C 271.171875 133.746094 271.171875 133.746094 271.164062 133.746094 L 267.289062 135.554688 C 267.285156 135.457031 267.277344 135.363281 267.277344 135.273438 C 267.269531 135.027344 267.277344 134.78125 267.285156 134.542969 C 267.296875 134.332031 267.3125 134.117188 267.339844 133.90625 L 267.339844 133.878906 C 267.339844 133.863281 267.347656 133.851562 267.347656 133.84375 C 267.359375 133.765625 267.367188 133.6875 267.375 133.621094 C 267.394531 133.519531 267.410156 133.429688 267.429688 133.332031 L 267.429688 133.324219 C 267.429688 133.304688 267.429688 133.28125 267.4375 133.269531 C 267.4375 133.253906 267.445312 133.242188 267.445312 133.226562 " fill-opacity="1" fill-rule="evenodd"/><g clip-path="url(#453bd3ce68)"><path fill="#f16219" d="M 312.5625 121.363281 C 312.355469 121.390625 312.144531 121.417969 311.925781 121.445312 C 311.710938 121.476562 311.492188 121.503906 311.273438 121.523438 C 311.066406 121.550781 310.855469 121.574219 310.644531 121.59375 L 310.246094 121.636719 C 309.902344 121.671875 309.558594 121.699219 309.214844 121.726562 C 308.871094 121.753906 308.535156 121.777344 308.191406 121.796875 C 307.976562 121.820312 307.765625 121.824219 307.546875 121.839844 C 307.28125 121.855469 307.023438 121.859375 306.765625 121.875 C 306.757812 121.875 306.742188 121.875 306.734375 121.875 C 306.300781 121.886719 305.867188 121.894531 305.425781 121.910156 C 305.382812 121.910156 305.339844 121.910156 305.300781 121.910156 L 305.195312 121.910156 C 304.808594 121.917969 304.429688 121.917969 304.054688 121.917969 C 304.054688 121.917969 304.054688 121.917969 304.046875 121.917969 C 304.039062 121.917969 304.039062 121.917969 304.039062 121.917969 C 304.039062 121.917969 304.039062 121.917969 304.03125 121.917969 C 304.023438 121.917969 304.023438 121.917969 304.023438 121.917969 C 304.023438 121.917969 304.019531 121.917969 304.019531 121.917969 C 304.011719 121.917969 304.011719 121.917969 304.011719 121.917969 C 304.011719 121.917969 304.003906 121.917969 304.003906 121.917969 C 303.996094 121.917969 303.996094 121.917969 303.988281 121.917969 C 303.984375 121.917969 303.96875 121.917969 303.960938 121.917969 C 303.953125 121.917969 303.953125 121.917969 303.949219 121.917969 C 303.941406 121.917969 303.925781 121.917969 303.917969 121.917969 C 303.914062 121.917969 303.914062 121.917969 303.914062 121.917969 C 303.695312 121.917969 303.484375 121.910156 303.273438 121.910156 C 303.058594 121.902344 302.847656 121.902344 302.636719 121.894531 C 302.441406 121.886719 302.253906 121.882812 302.0625 121.875 C 301.683594 121.859375 301.3125 121.839844 300.941406 121.820312 C 300.929688 121.820312 300.921875 121.820312 300.90625 121.820312 C 300.535156 121.789062 300.15625 121.769531 299.785156 121.742188 C 299.632812 121.726562 299.484375 121.714844 299.339844 121.699219 C 299.246094 121.691406 299.148438 121.683594 299.058594 121.679688 C 298.722656 121.648438 298.386719 121.617188 298.054688 121.574219 C 297.910156 121.558594 297.761719 121.546875 297.613281 121.53125 C 297.433594 121.503906 297.238281 121.480469 297.046875 121.460938 C 296.851562 121.433594 296.640625 121.40625 296.445312 121.378906 C 296.039062 121.328125 295.632812 121.265625 295.226562 121.203125 C 294.667969 121.109375 294.121094 121.011719 293.566406 120.90625 C 293.558594 120.90625 293.558594 120.90625 293.558594 120.90625 L 290.703125 130.4375 L 288.507812 137.746094 L 288.375 138.195312 C 288.328125 138.414062 288.269531 138.621094 288.199219 138.832031 C 288.160156 138.964844 288.117188 139.097656 288.066406 139.230469 C 288.039062 139.300781 288.011719 139.367188 287.984375 139.429688 C 287.949219 139.535156 287.898438 139.632812 287.863281 139.738281 C 287.824219 139.828125 287.78125 139.917969 287.738281 140.011719 C 287.730469 140.03125 287.71875 140.058594 287.710938 140.074219 C 287.660156 140.164062 287.625 140.253906 287.578125 140.339844 C 287.5625 140.359375 287.554688 140.375 287.550781 140.386719 C 287.519531 140.445312 287.484375 140.507812 287.449219 140.554688 C 287.445312 140.570312 287.445312 140.589844 287.4375 140.605469 L 287.429688 140.613281 C 287.382812 140.695312 287.332031 140.78125 287.28125 140.859375 C 287.242188 140.929688 287.207031 140.992188 287.164062 141.054688 C 287.15625 141.0625 287.148438 141.074219 287.144531 141.089844 C 287.136719 141.097656 287.128906 141.101562 287.128906 141.109375 C 287.007812 141.292969 286.882812 141.460938 286.757812 141.628906 C 286.75 141.644531 286.742188 141.648438 286.738281 141.65625 C 286.597656 141.839844 286.449219 142.027344 286.289062 142.195312 C 286.230469 142.265625 286.167969 142.335938 286.097656 142.398438 L 283.410156 136.625 L 283.234375 136.238281 L 280.125 129.570312 L 272.859375 132.953125 C 271.207031 132.503906 269.539062 132.105469 267.859375 131.761719 C 267.976562 131.453125 268.109375 131.160156 268.25 130.871094 L 271.046875 124.371094 L 275.394531 114.269531 C 274.898438 114.003906 274.414062 113.71875 273.929688 113.429688 L 273.925781 113.445312 C 273.285156 113.058594 272.65625 112.667969 272.03125 112.253906 C 271.09375 111.644531 270.175781 111 269.273438 110.328125 L 269.265625 110.328125 C 268.066406 109.4375 266.890625 108.496094 265.75 107.507812 C 265.390625 107.195312 265.027344 106.878906 264.679688 106.554688 C 264.664062 106.550781 264.65625 106.550781 264.65625 106.542969 C 264.460938 106.359375 264.265625 106.191406 264.074219 106.007812 C 263.914062 105.863281 263.761719 105.714844 263.605469 105.5625 C 262.863281 104.851562 262.136719 104.125 261.425781 103.367188 C 261.273438 103.214844 261.125 103.058594 260.972656 102.890625 C 260.777344 102.675781 260.578125 102.457031 260.382812 102.238281 C 260.242188 102.09375 260.109375 101.945312 259.984375 101.796875 C 263.472656 101.476562 266.898438 100.921875 270.238281 100.160156 C 273.363281 102.289062 276.671875 104.207031 280.144531 105.890625 C 282.371094 106.976562 284.671875 107.957031 287.03125 108.839844 C 287.21875 108.902344 287.402344 108.972656 287.589844 109.042969 C 295.449219 111.902344 303.472656 113.421875 311.40625 113.726562 C 311.40625 116.378906 311.8125 118.945312 312.5625 121.363281 " fill-opacity="1" fill-rule="evenodd"/></g><path fill="#ee2931" d="M 237.6875 134.542969 C 237.679688 134.332031 237.667969 134.125 237.640625 133.90625 C 237.644531 133.898438 237.640625 133.890625 237.640625 133.886719 C 237.640625 133.871094 237.640625 133.851562 237.632812 133.84375 C 237.625 133.765625 237.609375 133.695312 237.597656 133.621094 C 237.589844 133.519531 237.570312 133.429688 237.554688 133.332031 L 237.554688 133.324219 C 237.554688 133.304688 237.546875 133.289062 237.539062 133.277344 C 237.539062 133.253906 237.535156 133.242188 237.535156 133.226562 C 236.285156 133.375 235.039062 133.550781 233.800781 133.746094 L 237.6875 135.558594 C 237.695312 135.457031 237.703125 135.371094 237.703125 135.273438 C 237.707031 135.042969 237.703125 134.808594 237.695312 134.578125 C 237.6875 134.566406 237.6875 134.558594 237.6875 134.542969 " fill-opacity="1" fill-rule="nonzero"/><g clip-path="url(#ef5f21eac9)"><path fill="#ee2931" d="M 214.523438 129.890625 C 215.585938 126.5 218.09375 123.605469 221.605469 122.15625 C 218.09375 123.605469 215.585938 126.5 214.523438 129.890625 Z M 214.296875 130.429688 C 214.328125 130.417969 214.347656 130.410156 214.375 130.394531 C 214.347656 130.410156 214.320312 130.417969 214.296875 130.429688 Z M 234.859375 100.074219 C 231.699219 102.234375 228.355469 104.1875 224.832031 105.890625 C 222.605469 106.976562 220.308594 107.957031 217.949219 108.839844 C 217.757812 108.902344 217.578125 108.972656 217.386719 109.042969 C 209.527344 111.902344 201.507812 113.421875 193.570312 113.726562 C 193.570312 116.378906 193.164062 118.945312 192.414062 121.355469 C 192.625 121.390625 192.835938 121.417969 193.050781 121.445312 C 193.269531 121.476562 193.488281 121.503906 193.703125 121.523438 C 194.734375 121.644531 195.757812 121.734375 196.785156 121.796875 C 197.003906 121.820312 197.214844 121.824219 197.429688 121.839844 C 197.695312 121.855469 197.957031 121.859375 198.214844 121.875 C 198.222656 121.875 198.234375 121.875 198.242188 121.875 C 198.71875 121.894531 199.195312 121.902344 199.679688 121.910156 C 203.089844 121.964844 206.453125 121.71875 209.753906 121.203125 L 209.746094 121.1875 C 210.304688 121.097656 210.859375 121 211.414062 120.894531 L 212.414062 124.230469 L 214.277344 130.4375 L 216.46875 137.746094 L 216.601562 138.203125 C 216.652344 138.414062 216.714844 138.621094 216.777344 138.832031 C 216.820312 138.972656 216.867188 139.105469 216.910156 139.238281 C 216.9375 139.300781 216.96875 139.367188 216.996094 139.433594 C 217.039062 139.535156 217.070312 139.636719 217.121094 139.738281 C 217.15625 139.835938 217.199219 139.917969 217.242188 140.011719 C 217.246094 140.03125 217.253906 140.058594 217.269531 140.078125 C 217.316406 140.171875 217.351562 140.253906 217.410156 140.339844 C 217.410156 140.359375 217.421875 140.375 217.429688 140.386719 C 217.457031 140.445312 217.492188 140.507812 217.519531 140.5625 C 217.527344 140.578125 217.542969 140.589844 217.546875 140.613281 C 217.605469 140.695312 217.648438 140.78125 217.695312 140.863281 C 217.738281 140.929688 217.78125 140.992188 217.816406 141.054688 C 217.820312 141.066406 217.828125 141.074219 217.835938 141.089844 C 217.84375 141.097656 217.84375 141.109375 217.851562 141.109375 C 217.976562 141.292969 218.09375 141.46875 218.222656 141.636719 C 218.367188 141.824219 218.523438 142.015625 218.683594 142.195312 C 218.746094 142.265625 218.808594 142.335938 218.878906 142.40625 L 221.578125 136.625 L 221.75 136.238281 L 221.75 136.234375 L 224.863281 129.574219 L 224.863281 129.570312 L 232.117188 132.960938 C 233.773438 132.503906 235.4375 132.105469 237.121094 131.769531 C 237 131.453125 236.867188 131.160156 236.726562 130.871094 L 233.925781 124.375 L 229.589844 114.292969 C 230.082031 114.019531 230.570312 113.730469 231.054688 113.445312 C 231.691406 113.058594 232.320312 112.667969 232.945312 112.253906 C 233.882812 111.636719 234.800781 111 235.710938 110.332031 C 235.710938 110.328125 235.710938 110.328125 235.710938 110.328125 C 239.054688 107.859375 242.183594 105 245.027344 101.757812 C 241.570312 101.414062 238.171875 100.851562 234.859375 100.074219 " fill-opacity="1" fill-rule="nonzero"/></g><path fill="#1e1c1e" d="M 217.953125 108.875 C 217.773438 108.933594 217.582031 108.988281 217.386719 109.042969 C 217.578125 108.972656 217.757812 108.902344 217.949219 108.839844 L 217.953125 108.875 " fill-opacity="1" fill-rule="evenodd"/><path fill="#ee2931" d="M 214.976562 105.875 C 210.710938 107.425781 205.996094 105.230469 204.441406 100.964844 C 202.894531 96.695312 205.09375 91.980469 209.359375 90.433594 C 213.617188 88.875 218.332031 91.078125 219.886719 95.34375 C 221.4375 99.605469 219.242188 104.320312 214.976562 105.875 " fill-opacity="1" fill-rule="evenodd"/><path fill="#264790" d="M 280.152344 105.898438 C 276.613281 107.761719 272.972656 109.234375 269.265625 110.328125 C 267.464844 110.867188 265.652344 111.308594 263.824219 111.664062 C 263.269531 111.769531 262.714844 111.867188 262.164062 111.960938 L 263.191406 129.980469 C 263.242188 130.332031 263.261719 130.691406 263.261719 131.0625 C 263.261719 131.132812 263.257812 131.203125 263.25 131.277344 C 263.25 131.375 263.242188 131.488281 263.242188 131.601562 C 263.234375 131.699219 263.226562 131.804688 263.214844 131.902344 C 263.214844 131.921875 263.214844 131.953125 263.207031 131.972656 C 263.199219 132.078125 263.191406 132.167969 263.179688 132.265625 C 263.179688 132.289062 263.171875 132.308594 263.171875 132.324219 C 263.15625 132.386719 263.152344 132.449219 263.144531 132.519531 C 263.136719 132.53125 263.136719 132.554688 263.136719 132.5625 L 263.136719 132.566406 C 263.121094 132.636719 263.109375 132.699219 263.09375 132.769531 C 263.085938 132.800781 263.082031 132.828125 263.082031 132.863281 C 263.066406 132.933594 263.054688 133.007812 263.03125 133.078125 C 263.03125 133.09375 263.03125 133.109375 263.023438 133.121094 C 263.019531 133.128906 263.023438 133.144531 263.019531 133.148438 C 262.96875 133.351562 262.914062 133.5625 262.851562 133.757812 C 262.84375 133.773438 262.84375 133.78125 262.835938 133.792969 C 262.773438 134.011719 262.695312 134.234375 262.613281 134.453125 C 262.578125 134.539062 262.535156 134.621094 262.5 134.707031 L 260.355469 132.566406 L 252.488281 124.691406 L 242.480469 134.710938 C 242.445312 134.621094 242.410156 134.539062 242.375 134.453125 C 242.28125 134.222656 242.199219 133.992188 242.128906 133.757812 C 242.066406 133.5625 242.015625 133.351562 241.960938 133.148438 C 241.960938 133.144531 241.960938 133.128906 241.953125 133.113281 C 241.953125 133.109375 241.953125 133.09375 241.945312 133.078125 C 241.933594 133.007812 241.910156 132.933594 241.898438 132.863281 C 241.890625 132.828125 241.882812 132.800781 241.882812 132.769531 C 241.871094 132.699219 241.863281 132.636719 241.847656 132.574219 L 241.847656 132.5625 C 241.847656 132.546875 241.839844 132.53125 241.835938 132.519531 C 241.828125 132.457031 241.820312 132.386719 241.808594 132.324219 C 241.808594 132.300781 241.808594 132.289062 241.800781 132.265625 C 241.785156 132.167969 241.777344 132.078125 241.765625 131.972656 C 241.765625 131.953125 241.765625 131.921875 241.765625 131.902344 C 241.75 131.796875 241.742188 131.707031 241.742188 131.59375 C 241.738281 131.496094 241.730469 131.375 241.730469 131.273438 C 241.722656 131.203125 241.714844 131.132812 241.714844 131.0625 C 241.722656 130.695312 241.738281 130.332031 241.777344 129.980469 L 242.816406 111.945312 C 242.261719 111.855469 241.707031 111.753906 241.15625 111.652344 L 241.15625 111.664062 C 239.328125 111.308594 237.511719 110.867188 235.710938 110.332031 C 234.277344 109.90625 232.855469 109.429688 231.445312 108.890625 C 231 108.714844 230.558594 108.53125 230.109375 108.355469 C 230.101562 108.355469 230.085938 108.355469 230.085938 108.351562 C 229.84375 108.246094 229.597656 108.148438 229.359375 108.046875 C 229.164062 107.964844 228.960938 107.878906 228.761719 107.789062 C 227.824219 107.375 226.894531 106.941406 225.960938 106.472656 C 225.773438 106.382812 225.578125 106.28125 225.378906 106.179688 C 225.199219 106.085938 225.015625 105.988281 224.832031 105.898438 C 228.355469 104.1875 231.699219 102.238281 234.859375 100.074219 C 238.171875 100.851562 241.570312 101.414062 245.027344 101.75 C 247.566406 102 250.136719 102.128906 252.734375 102.128906 C 255.179688 102.128906 257.597656 102.015625 259.984375 101.796875 C 263.472656 101.476562 266.898438 100.921875 270.238281 100.160156 C 273.363281 102.289062 276.671875 104.207031 280.152344 105.898438 " fill-opacity="1" fill-rule="evenodd"/><path fill="#f16219" d="M 285.082031 82.457031 L 287.640625 82.519531 L 298.96875 82.800781 L 309.027344 92.378906 L 309.027344 97.433594 C 309.039062 97.441406 309.054688 97.445312 309.066406 97.453125 C 309.074219 97.460938 309.089844 97.472656 309.097656 97.480469 C 309.257812 97.585938 309.363281 97.761719 309.355469 97.964844 C 309.355469 98.183594 309.242188 98.371094 309.066406 98.46875 L 309.066406 99.007812 L 309.671875 100.207031 L 307.835938 100.207031 L 308.445312 98.988281 L 308.445312 98.441406 C 308.417969 98.421875 308.394531 98.40625 308.367188 98.386719 C 308.242188 98.28125 308.15625 98.121094 308.15625 97.9375 C 308.15625 97.71875 308.269531 97.53125 308.445312 97.433594 L 308.445312 92.421875 L 308.382812 92.421875 L 306.695312 92.542969 L 304.332031 92.710938 L 303.605469 92.765625 L 303.511719 92.988281 L 302.652344 95.070312 C 301.945312 93.984375 301.097656 93.011719 300.121094 92.15625 C 300.058594 92.101562 299.988281 92.035156 299.925781 91.980469 C 298.792969 91.019531 297.511719 90.242188 296.125 89.667969 C 294.734375 89.09375 293.277344 88.734375 291.792969 88.617188 C 291.710938 88.609375 291.617188 88.601562 291.535156 88.597656 C 291.28125 88.582031 291.023438 88.566406 290.769531 88.566406 C 290.546875 88.5625 290.324219 88.566406 290.097656 88.574219 C 289.285156 88.601562 288.488281 88.699219 287.6875 88.871094 L 288.640625 86.5625 L 285.082031 82.457031 " fill-opacity="1" fill-rule="evenodd"/><g clip-path="url(#7febfd2afb)"><path fill="#264790" d="M 252.488281 72.351562 L 238.605469 77.707031 L 238.605469 83.125 C 238.589844 83.128906 238.578125 83.136719 238.5625 83.144531 C 238.550781 83.152344 238.542969 83.164062 238.527344 83.171875 C 238.359375 83.285156 238.25 83.472656 238.25 83.691406 C 238.25 83.921875 238.375 84.125 238.5625 84.230469 L 238.5625 84.8125 L 237.917969 86.09375 L 239.878906 86.09375 L 239.230469 84.785156 L 239.230469 84.195312 C 239.257812 84.179688 239.285156 84.160156 239.304688 84.140625 C 239.445312 84.027344 239.539062 83.851562 239.539062 83.65625 C 239.539062 83.429688 239.410156 83.226562 239.230469 83.125 L 239.230469 78.015625 L 243.117188 79.960938 L 243.808594 80.3125 L 243.808594 82.984375 C 244.957031 82.199219 246.199219 81.582031 247.507812 81.132812 C 247.601562 81.105469 247.691406 81.078125 247.773438 81.050781 C 249.296875 80.558594 250.878906 80.3125 252.488281 80.3125 C 254.101562 80.3125 255.683594 80.558594 257.203125 81.050781 C 257.292969 81.078125 257.378906 81.105469 257.46875 81.132812 C 258.78125 81.582031 260.019531 82.199219 261.167969 82.984375 L 261.167969 80.3125 L 266.375 77.707031 L 252.488281 72.351562 " fill-opacity="1" fill-rule="evenodd"/></g><path fill="#f16219" d="M 300.207031 100.839844 C 298.660156 105.105469 293.945312 107.304688 289.679688 105.757812 C 285.417969 104.203125 283.21875 99.484375 284.769531 95.21875 C 286.324219 90.957031 291.039062 88.757812 295.296875 90.304688 C 299.5625 91.863281 301.761719 96.578125 300.207031 100.839844 " fill-opacity="1" fill-rule="evenodd"/><path fill="#264790" d="M 260.53125 89.863281 C 260.53125 94.40625 256.851562 98.085938 252.320312 98.085938 C 247.773438 98.085938 244.105469 94.40625 244.105469 89.863281 C 244.105469 85.332031 247.773438 81.652344 252.320312 81.652344 C 256.851562 81.652344 260.53125 85.332031 260.53125 89.863281 " fill-opacity="1" fill-rule="evenodd"/><g clip-path="url(#0f74ad2cec)"><path fill="#264790" d="M 307.625 145.523438 C 304.472656 145.144531 301.277344 144.804688 298.0625 144.496094 C 283.457031 143.078125 268.195312 142.335938 252.488281 142.335938 C 236.785156 142.335938 221.519531 143.078125 206.921875 144.496094 C 203.699219 144.804688 200.503906 145.144531 197.351562 145.523438 C 203.449219 142.414062 209.835938 139.808594 216.46875 137.746094 C 218.214844 137.199219 219.980469 136.703125 221.75 136.238281 C 222.425781 136.066406 223.089844 135.898438 223.769531 135.726562 C 227.0625 134.929688 230.410156 134.265625 233.800781 133.746094 C 235.039062 133.550781 236.285156 133.375 237.535156 133.226562 C 242.4375 132.625 247.425781 132.316406 252.488281 132.316406 C 257.554688 132.316406 262.542969 132.625 267.445312 133.226562 C 268.691406 133.382812 269.929688 133.550781 271.171875 133.746094 L 271.179688 133.746094 C 274.574219 134.265625 277.925781 134.929688 281.222656 135.734375 C 281.894531 135.898438 282.5625 136.066406 283.234375 136.238281 C 285.007812 136.703125 286.765625 137.207031 288.507812 137.746094 C 295.140625 139.808594 301.53125 142.414062 307.625 145.523438 " fill-opacity="1" fill-rule="evenodd"/></g><path stroke-linecap="butt" transform="matrix(1.409637, 0, 0, 1.409637, 187.500007, 201.713922)" fill="none" stroke-linejoin="miter" d="M 25.44704 30.236166 C 28.877667 30.213997 31.795639 31.000991 34.206499 32.591604 C 35.423013 33.389682 36.506515 34.395593 37.459775 35.612107 C 39.95931 38.906949 41.319922 43.343486 41.538839 48.916176 C 41.671852 51.792581 41.153656 54.635734 39.981479 57.442862 C 39.382921 58.858896 38.620867 60.27493 37.689776 61.690964 C 34.550116 66.534853 30.623462 68.956798 25.912586 68.956798 C 22.063523 68.956798 18.1147 67.100158 14.068889 63.384108 C 10.020306 59.690227 7.154985 55.275859 5.475696 50.143775 C 3.926649 45.432899 2.998329 41.240219 2.687966 37.568506 C 3.042667 36.57368 3.671708 36.077653 4.577859 36.077653 C 5.353768 36.077653 6.016061 36.485005 6.570282 37.305251 C 7.055225 41.109977 7.576193 43.983611 8.127642 45.931697 C 8.859214 48.564246 10.020306 51.271614 11.613691 54.059344 C 13.226473 56.847075 15.119137 59.235766 17.28614 61.225418 C 20.096039 63.724954 22.858829 64.974722 25.580053 64.974722 C 27.040425 64.974722 28.467543 64.589538 29.861408 63.813629 C 32.493957 62.353257 34.527947 60.219508 35.96615 57.409609 C 37.227002 54.910073 37.822789 52.269211 37.756283 49.481481 C 37.756283 49.414974 37.756283 49.348468 37.756283 49.281961 C 37.382184 39.150806 33.411192 34.074145 25.846079 34.051976 L 25.580053 34.051976 C 22.285211 34.628365 20.636404 36.7732 20.636404 40.48925 C 20.636404 41.572751 20.769417 42.80035 21.035443 44.172046 C 21.035443 45.299886 20.328812 45.865191 18.912778 45.865191 C 18.1147 45.865191 17.596504 45.521574 17.352646 44.837111 C 16.953608 43.576259 16.754088 42.2489 16.754088 40.855035 C 16.754088 38.000798 17.496744 35.567769 18.979284 33.555948 C 20.614235 31.386174 22.772925 30.280504 25.44704 30.236166 Z M 63.364052 30.435685 L 63.364052 45.865191 C 63.804657 46.682666 64.480806 47.09279 65.386957 47.09279 C 67.664805 47.09279 71.136998 44.438072 75.806307 39.128638 C 76.379926 38.643695 76.900893 38.399837 77.363667 38.399837 C 77.851382 38.399837 78.372349 38.643695 78.923799 39.128638 C 81.223815 41.672511 82.373823 44.978438 82.373823 49.049189 C 82.373823 53.915247 80.905138 58.340699 77.962226 62.320004 C 74.886301 66.523768 71.236757 68.646434 67.013595 68.690772 C 64.115021 68.690772 61.260784 67.828958 58.453656 66.102561 C 55.643757 64.401103 53.36591 62.145425 51.617343 59.335526 C 48.122982 53.84874 46.374415 47.976772 46.374415 41.716848 C 46.374415 40.76636 46.440922 39.826956 46.573935 38.895865 C 46.706948 37.967545 47.250084 37.504771 48.200572 37.504771 C 49.239736 37.504771 49.871548 38.000798 50.090465 38.995625 C 50.048899 39.638521 50.02673 40.300815 50.02673 40.988048 C 50.02673 45.455067 50.932881 49.736422 52.745182 53.826572 C 54.028203 56.680808 55.954121 59.169259 58.520163 61.291925 C 61.327291 63.658447 64.159358 64.841709 67.013595 64.841709 C 70.286269 64.841709 73.096168 63.007238 75.440521 59.335526 C 77.541018 56.104419 78.591266 52.776323 78.591266 49.348468 C 78.591266 47.203634 78.183914 45.266632 77.363667 43.543006 C 71.968329 48.497739 67.775649 50.975106 64.79117 50.975106 C 62.291635 50.975106 60.410055 49.525819 59.149203 46.627244 L 59.149203 30.435685 C 59.149203 29.706885 59.847521 29.3411 61.238615 29.3411 C 62.654649 29.3411 63.364052 29.706885 63.364052 30.435685 Z M 104.961089 37.934292 C 102.32854 37.97863 99.928765 38.762852 97.761762 40.28973 C 95.57259 41.838777 93.89053 43.994696 92.718353 46.760257 C 92.03389 48.331473 91.690273 49.977509 91.690273 51.703906 C 91.690273 53.937416 92.23341 55.885502 93.316911 57.542622 C 95.062707 60.308183 97.717424 61.690964 101.278292 61.690964 C 103.622646 61.690964 105.914348 60.92891 108.147858 59.402032 C 110.181848 57.985998 111.808486 56.193094 113.025 54.026091 C 114.175009 51.992101 114.748627 49.85558 114.748627 47.62207 C 114.748627 44.85928 113.931151 42.578662 112.293429 40.788529 C 110.503296 38.840443 108.059183 37.889954 104.961089 37.934292 Z M 89.800381 43.27698 C 91.346657 40.467081 93.427755 38.211402 96.038135 36.507174 C 98.667912 34.783547 101.411305 33.874625 104.265542 33.788721 C 107.053272 33.677877 109.541723 34.184989 111.730895 35.312828 C 112.814397 35.867049 113.831392 36.57368 114.78188 37.438264 C 117.613948 40.023704 119.029982 43.221558 119.029982 47.026283 C 119.029982 47.932434 118.930222 48.816416 118.730703 49.681 C 117.029245 58.548532 112.226923 63.869051 104.332048 65.639786 C 103.159871 65.903041 102.032032 66.036054 100.948531 66.036054 C 97.010792 66.036054 93.768601 64.589538 91.224728 61.690964 C 88.813868 58.925402 87.608438 55.575138 87.608438 51.6374 C 87.608438 48.694488 88.340009 45.909528 89.800381 43.27698 Z M 89.800381 43.27698 " stroke="#ee2931" stroke-width="2.208602" stroke-opacity="1" stroke-miterlimit="4"/><g fill="#ff3131" fill-opacity="1"><g transform="translate(187.500007, 306.027053)"><g><path d="M 35.875 -61.6875 C 40.707031 -61.71875 44.820312 -60.609375 48.21875 -58.359375 C 49.9375 -57.242188 51.460938 -55.828125 52.796875 -54.109375 C 56.328125 -49.460938 58.242188 -43.210938 58.546875 -35.359375 C 58.734375 -31.304688 58.003906 -27.300781 56.359375 -23.34375 C 55.515625 -21.34375 54.4375 -19.34375 53.125 -17.34375 C 48.695312 -10.519531 43.164062 -7.109375 36.53125 -7.109375 C 31.101562 -7.109375 25.535156 -9.726562 19.828125 -14.96875 C 14.117188 -20.175781 10.082031 -26.394531 7.71875 -33.625 C 5.53125 -40.269531 4.21875 -46.175781 3.78125 -51.34375 C 4.28125 -52.75 5.171875 -53.453125 6.453125 -53.453125 C 7.546875 -53.453125 8.484375 -52.875 9.265625 -51.71875 C 9.941406 -46.363281 10.671875 -42.3125 11.453125 -39.5625 C 12.484375 -35.851562 14.125 -32.035156 16.375 -28.109375 C 18.644531 -24.179688 21.304688 -20.8125 24.359375 -18 C 28.328125 -14.476562 32.226562 -12.71875 36.0625 -12.71875 C 38.113281 -12.71875 40.125 -13.265625 42.09375 -14.359375 C 45.800781 -16.410156 48.671875 -19.421875 50.703125 -23.390625 C 52.472656 -26.910156 53.3125 -30.632812 53.21875 -34.5625 C 53.21875 -34.65625 53.21875 -34.75 53.21875 -34.84375 C 52.6875 -49.125 47.09375 -56.28125 36.4375 -56.3125 L 36.0625 -56.3125 C 31.414062 -55.5 29.09375 -52.472656 29.09375 -47.234375 C 29.09375 -45.703125 29.28125 -43.972656 29.65625 -42.046875 C 29.65625 -40.453125 28.65625 -39.65625 26.65625 -39.65625 C 25.53125 -39.65625 24.796875 -40.140625 24.453125 -41.109375 C 23.898438 -42.890625 23.625 -44.757812 23.625 -46.71875 C 23.625 -50.738281 24.664062 -54.171875 26.75 -57.015625 C 29.0625 -60.066406 32.101562 -61.625 35.875 -61.6875 Z M 35.875 -61.6875 "/></g></g></g><g fill="#ff3131" fill-opacity="1"><g transform="translate(249.271725, 306.027053)"><g><path d="M 27.546875 -61.40625 L 27.546875 -39.65625 C 28.171875 -38.5 29.125 -37.921875 30.40625 -37.921875 C 33.613281 -37.921875 38.503906 -41.664062 45.078125 -49.15625 C 45.890625 -49.84375 46.625 -50.1875 47.28125 -50.1875 C 47.96875 -50.1875 48.703125 -49.84375 49.484375 -49.15625 C 52.722656 -45.570312 54.34375 -40.910156 54.34375 -35.171875 C 54.34375 -28.304688 52.269531 -22.070312 48.125 -16.46875 C 43.789062 -10.539062 38.644531 -7.546875 32.6875 -7.484375 C 28.601562 -7.484375 24.582031 -8.695312 20.625 -11.125 C 16.664062 -13.53125 13.453125 -16.710938 10.984375 -20.671875 C 6.054688 -28.398438 3.59375 -36.675781 3.59375 -45.5 C 3.59375 -46.84375 3.6875 -48.164062 3.875 -49.46875 C 4.0625 -50.78125 4.828125 -51.4375 6.171875 -51.4375 C 7.640625 -51.4375 8.53125 -50.738281 8.84375 -49.34375 C 8.78125 -48.4375 8.75 -47.5 8.75 -46.53125 C 8.75 -40.238281 10.023438 -34.207031 12.578125 -28.4375 C 14.390625 -24.414062 17.101562 -20.90625 20.71875 -17.90625 C 24.675781 -14.570312 28.664062 -12.90625 32.6875 -12.90625 C 37.300781 -12.90625 41.257812 -15.492188 44.5625 -20.671875 C 47.53125 -25.222656 49.015625 -29.914062 49.015625 -34.75 C 49.015625 -37.769531 48.4375 -40.5 47.28125 -42.9375 C 39.675781 -35.945312 33.769531 -32.453125 29.5625 -32.453125 C 26.03125 -32.453125 23.378906 -34.492188 21.609375 -38.578125 L 21.609375 -61.40625 C 21.609375 -62.4375 22.585938 -62.953125 24.546875 -62.953125 C 26.546875 -62.953125 27.546875 -62.4375 27.546875 -61.40625 Z M 27.546875 -61.40625 "/></g></g></g><g fill="#ff3131" fill-opacity="1"><g transform="translate(306.32055, 306.027053)"><g><path d="M 29.140625 -50.84375 C 25.429688 -50.78125 22.046875 -49.671875 18.984375 -47.515625 C 15.898438 -45.335938 13.53125 -42.296875 11.875 -38.390625 C 10.90625 -36.179688 10.421875 -33.859375 10.421875 -31.421875 C 10.421875 -28.273438 11.1875 -25.535156 12.71875 -23.203125 C 15.1875 -19.296875 18.929688 -17.34375 23.953125 -17.34375 C 27.253906 -17.34375 30.476562 -18.421875 33.625 -20.578125 C 36.488281 -22.578125 38.78125 -25.101562 40.5 -28.15625 C 42.125 -31.019531 42.9375 -34.03125 42.9375 -37.1875 C 42.9375 -41.082031 41.78125 -44.289062 39.46875 -46.8125 C 36.945312 -49.5625 33.503906 -50.90625 29.140625 -50.84375 Z M 7.765625 -43.3125 C 9.941406 -47.269531 12.875 -50.445312 16.5625 -52.84375 C 20.269531 -55.28125 24.132812 -56.5625 28.15625 -56.6875 C 32.082031 -56.84375 35.585938 -56.125 38.671875 -54.53125 C 40.203125 -53.75 41.640625 -52.75 42.984375 -51.53125 C 46.972656 -47.882812 48.96875 -43.378906 48.96875 -38.015625 C 48.96875 -36.742188 48.828125 -35.5 48.546875 -34.28125 C 46.140625 -21.78125 39.375 -14.28125 28.25 -11.78125 C 26.59375 -11.40625 25.003906 -11.21875 23.484375 -11.21875 C 17.929688 -11.21875 13.363281 -13.257812 9.78125 -17.34375 C 6.375 -21.25 4.671875 -25.972656 4.671875 -31.515625 C 4.671875 -35.660156 5.703125 -39.59375 7.765625 -43.3125 Z M 7.765625 -43.3125 "/></g></g></g></svg>